<?xml version="1.0" encoding="iso-8859-1"?>
<!-- Generator: Adobe Illustrator 23.0.3, SVG Export Plug-In . SVG Version: 6.00 Build 0)  -->
<svg version="1.1" xmlns="http://www.w3.org/2000/svg" xmlns:xlink="http://www.w3.org/1999/xlink" x="0px" y="0px"
	 viewBox="0 0 24 24" style="enable-background:new 0 0 24 24;" xml:space="preserve">
<g id="filled">
</g>
<g id="outlined">
</g>
<g id="rounded">
	<path d="M18,6h-1c-0.552,0-1-0.448-1-1V4c0-0.552,0.448-1,1-1h1c0.552,0,1,0.448,1,1v1C19,5.552,18.552,6,18,6z"/>
	<path d="M19,16.702c0,0.952-0.213,3.983-2.741,5.135c-0.25,0.114-0.542,0.095-0.792-0.018l-1.541-0.698
		c-0.369-0.167-0.387-0.667-0.046-0.884c1.46-0.927,2.12-2.253,2.12-3.535V9c0-0.552,0.448-1,1-1h1c0.552,0,1,0.448,1,1V16.702z"/>
	<path d="M11,4v4.159C10.653,8.018,9.904,8,9.535,8C6.759,8,4.19,9.306,4.19,13c0,4.42,3.48,5,5.81,5
		c0.703,0,2.085-0.053,3.143-0.207C13.636,17.721,14,17.3,14,16.802V4c0-0.552-0.448-1-1-1h-1C11.448,3,11,3.448,11,4z M9.97,15.533
		c-1.31,0-2.58-0.413-2.58-2.533s1.27-2.45,2.58-2.45c0.32,0,0.68,0.06,1.03,0.14v4.703C10.65,15.473,10.29,15.533,9.97,15.533z"/>
</g>
<g id="two_x5F_tone">
</g>
<g id="sharp">
</g>
<g id="win10">
</g>
<g id="ios_x5F_out">
</g>
<g id="ios_x5F_filled">
</g>
<g id="color">
</g>
</svg>